# xmcd CD database file
#
# Track frame offsets:
#	183
#	10345
#	43210
#	51970
#	54698
#	58528
#	70210
#	78648
#	82288
#	86095
#	93685
#	119473
#	126160
#	129260
#	132135
#	139800
#	148293
#	153375
#	158248
#	163693
#	166080
#	180335
#	183655
#	198123
#
# Disc length: 2769 seconds
#
# Revision: 0
# Processed by: cddbd v1.5.2PL0 Copyright (c) Steve Scherf et al.
# Submitted via: CDex 1.51
#
DISCID=5e0acf18
DTITLE=Karlheinz Stockhausen u. a. - Stockhausen - Der Jahreslauf für Orchester und Tonband
DYEAR=1993
DGENRE=
TTITLE0=Eingang. Geisha-Glocken
TTITLE1=1. Tutti
TTITLE2=Erste Versuchung. Schiffsglocke
TTITLE3=Erste. Anfeuerung. Mädchen
TTITLE4=2. Tutti
TTITLE5=Solo 1. Piccolo-Flöte
TTITLE6=3. Tutti. Gruppen-Solo der Saxophone
TTITLE7=Zweite Versuchung. Wagen
TTITLE8=Zweite Anfeuerung. Löwengebrüll
TTITLE9=Duo Cembalo-Gitarre
TTITLE10=4. Tutti mit Duo Cembalo-Gitarre
TTITLE11=Dritte Versuchung. Hupen, Motorrad
TTITLE12=Dritte Anfeuerung. Mädchen
TTITLE13=5. Tutti
TTITLE14=Fortsetzung Tutti mit 2. Gruppen-Solo der Saxophone
TTITLE15=Solo 1. Sopran-Saxophon, 1. Formel
TTITLE16=Solo 1. Sopran-Saxophon, 2. Formel
TTITLE17=Solo 1. Sopran-Saxophon, 3. Formel
TTITLE18=Vierte Versuchung. Blues
TTITLE19=Einsatz der Schlagzeuger
TTITLE20=Vierte Anfeuerung. Gewitter - 6. Tutti
TTITLE21=Ruhe
TTITLE22=Beginn des Schluss-Crescendos
TTITLE23=Schluss-Accord und Stille
EXTD=YEAR: 1993
EXTT0=
EXTT1=
EXTT2=
EXTT3=
EXTT4=
EXTT5=
EXTT6=
EXTT7=
EXTT8=
EXTT9=
EXTT10=
EXTT11=
EXTT12=
EXTT13=
EXTT14=
EXTT15=
EXTT16=
EXTT17=
EXTT18=
EXTT19=
EXTT20=
EXTT21=
EXTT22=
EXTT23=
PLAYORDER=
